<svg width="700" height="192" viewBox="0 0 700 192" fill="none" xmlns="http://www.w3.org/2000/svg">
<path fill-rule="evenodd" clip-rule="evenodd" d="M70.8734 43.4269C71.3798 43.3289 72.2343 43.2639 73.1231 43.6966C73.7911 44.0219 74.3906 44.5767 74.7719 44.9454C75.242 45.4 75.7797 45.9762 76.363 46.6375C77.5342 47.9655 78.9935 49.7562 80.6351 51.875C83.9233 56.1191 88.0191 61.7791 92.1297 67.9052C96.239 74.0291 100.387 80.6539 103.766 86.8235C107.114 92.9353 109.824 98.8051 110.903 103.359C113.063 112.476 110.796 123.517 107.769 132.034C106.237 136.342 104.456 140.161 102.803 142.951C101.983 144.335 101.146 145.549 100.335 146.456C99.9328 146.906 99.4683 147.359 98.9486 147.72C98.4846 148.043 97.6452 148.529 96.5566 148.529C95.1956 148.529 94.1277 147.884 93.4539 147.364C92.7412 146.815 92.0942 146.112 91.5243 145.419C90.5556 144.239 89.5149 142.712 88.4909 141.209C88.3191 140.957 88.1478 140.706 87.9774 140.457C86.7422 138.653 85.4839 136.868 84.1604 135.349C82.8168 133.807 81.5711 132.735 80.4338 132.182C77.4925 130.749 75.3462 130.358 73.0947 130.728C70.6839 131.125 67.8077 132.448 63.5439 135.217C61.7104 136.407 59.524 138.853 57.0971 141.616L57.027 141.696C55.9036 142.975 54.7447 144.294 53.6557 145.395C52.6 146.462 51.3515 147.598 50.0487 148.232C48.4327 149.019 46.8324 148.524 45.8677 148.046C44.8344 147.533 43.8547 146.728 42.9637 145.817C41.1575 143.97 39.2525 141.209 37.5188 137.769C34.0353 130.857 31.0433 120.805 31.0433 108.805C31.0433 102.433 33.4025 95.0974 36.7603 87.888C40.1442 80.6228 44.6661 73.2268 49.2613 66.6567C53.8573 60.0854 58.5738 54.2732 62.3836 50.1765C64.2785 48.1389 66.007 46.463 67.4229 45.3241C68.1171 44.7656 68.8412 44.2502 69.5429 43.8975C69.8915 43.7223 70.3489 43.5284 70.8734 43.4269ZM42.0107 90.2072C38.7759 97.1525 36.8086 103.621 36.8086 108.805C36.8086 119.918 39.5851 129.126 42.6944 135.296C44.257 138.396 45.8544 140.631 47.1385 141.945C47.5267 142.341 47.8474 142.614 48.0918 142.794C48.4495 142.512 48.9175 142.092 49.5037 141.5C50.4725 140.52 51.5374 139.308 52.716 137.966L52.8714 137.789C55.0644 135.292 57.7561 132.226 60.3459 130.545C64.7554 127.682 68.4719 125.795 72.1336 125.192C75.9547 124.563 79.3608 125.382 83.0122 127.16C85.1712 128.211 87.0159 129.948 88.5565 131.717C90.1174 133.508 91.5373 135.536 92.7744 137.343C92.961 137.615 93.1423 137.881 93.3189 138.14C94.359 139.665 95.232 140.944 96.0262 141.911C96.149 142.061 96.2626 142.193 96.3673 142.311C96.7763 141.786 97.2647 141.065 97.8093 140.145C99.2468 137.719 100.885 134.235 102.321 130.197C105.227 122.021 107.08 112.196 105.285 104.621C104.386 100.828 101.986 95.5026 98.6796 89.466C95.4046 83.4874 91.3528 77.0109 87.3036 70.9764C83.2558 64.9441 79.2343 59.3888 76.0328 55.2565C74.4295 53.1871 73.0509 51.4992 71.9893 50.2955C71.7256 49.9965 71.4878 49.7346 71.2762 49.5088C71.2182 49.554 71.1576 49.602 71.0945 49.6528C69.9866 50.544 68.4703 51.9954 66.6568 53.9454C63.0498 57.824 58.4953 63.4277 54.0263 69.8173C49.5566 76.208 45.2195 83.3178 42.0107 90.2072Z" fill="#2E2D2D"/>
<path fill-rule="evenodd" clip-rule="evenodd" d="M70.4686 0.131354C71.3645 -0.0473188 72.8763 -0.165885 74.4489 0.623314C75.6308 1.21647 76.6914 2.2282 77.3661 2.90052C78.1978 3.72937 79.1491 4.78009 80.181 5.98606C82.2531 8.40775 84.835 11.673 87.7393 15.5367C93.5568 23.276 100.803 33.5972 108.076 44.7683C115.346 55.9354 122.685 68.0159 128.664 79.2664C134.587 90.4115 139.381 101.115 141.29 109.419C145.112 126.044 141.101 146.178 135.745 161.708C133.035 169.565 129.884 176.529 126.96 181.617C125.509 184.14 124.028 186.354 122.593 188.008C121.881 188.829 121.06 189.654 120.14 190.313C119.319 190.902 117.834 191.787 115.908 191.787C113.5 191.787 111.611 190.612 110.419 189.664C109.158 188.662 108.013 187.381 107.005 186.116C105.291 183.966 103.45 181.181 101.638 178.441C101.334 177.981 101.031 177.523 100.73 177.069C98.5443 173.779 96.318 170.524 93.9765 167.754C91.5993 164.942 89.3954 162.988 87.3833 161.978C82.1793 159.367 78.382 158.652 74.3987 159.328C70.1334 160.052 65.0446 162.465 57.5011 167.513C54.2571 169.683 50.389 174.143 46.0952 179.182L45.9711 179.327C43.9836 181.66 41.9332 184.066 40.0065 186.073C38.1387 188.019 35.9299 190.09 33.6249 191.247C30.7658 192.682 27.9345 191.779 26.2278 190.907C24.3996 189.972 22.6664 188.504 21.0899 186.842C17.8944 183.474 14.524 178.44 11.4567 172.167C5.29362 159.563 0 141.233 0 119.35C0 107.73 4.17389 94.3541 10.1147 81.2076C16.1016 67.9592 24.1019 54.4725 32.2319 42.4916C40.3633 30.5087 48.7077 19.9099 55.4481 12.4396C58.8007 8.72394 61.8589 5.66787 64.3638 3.591C65.5921 2.57264 66.8731 1.63276 68.1147 0.989568C68.7315 0.670086 69.5407 0.316416 70.4686 0.131354ZM19.4039 85.4367C13.6807 98.1017 10.2001 109.897 10.2001 119.35C10.2001 139.615 15.1125 156.407 20.6134 167.657C23.3781 173.311 26.2042 177.387 28.4762 179.781C29.163 180.505 29.7303 181.002 30.1627 181.33C30.7956 180.816 31.6235 180.051 32.6607 178.97C34.3748 177.184 36.2588 174.974 38.3439 172.527L38.6189 172.204C42.4988 167.65 47.2612 162.06 51.8431 158.994C59.6445 153.774 66.2198 150.333 72.6982 149.233C79.4587 148.086 85.4848 149.579 91.9449 152.821C95.7647 154.738 99.0284 157.906 101.754 161.131C104.516 164.397 107.028 168.094 109.217 171.39C109.547 171.887 109.868 172.371 110.18 172.843C112.02 175.624 113.565 177.957 114.97 179.72C115.187 179.993 115.388 180.235 115.573 180.449C116.297 179.491 117.161 178.177 118.124 176.5C120.668 172.075 123.567 165.723 126.106 158.359C131.248 143.45 134.527 125.535 131.351 111.721C129.76 104.804 125.514 95.0929 119.664 84.0852C113.87 73.1828 106.701 61.3728 99.5374 50.3688C92.3759 39.3687 85.261 29.2384 79.5968 21.703C76.7602 17.9294 74.3211 14.8516 72.443 12.6566C71.9764 12.1113 71.5556 11.6336 71.1812 11.222C71.0786 11.3044 70.9715 11.3918 70.8598 11.4845C68.8996 13.1097 66.2169 15.7564 63.0085 19.3122C56.6269 26.3849 48.5688 36.6035 40.6622 48.2551C32.7543 59.9088 25.081 72.8737 19.4039 85.4367ZM72.8547 10.0576L72.8371 10.0654Z" fill="#2E2D2D"/>
<path d="M201.219 114.714C199.661 114.196 197.48 113.678 194.676 113.16C191.976 112.538 188.809 112.227 185.174 112.227C183.097 112.227 180.864 112.434 178.475 112.849C176.19 113.263 174.58 113.626 173.646 113.937V179.05H154.796V101.66C158.431 100.313 162.949 99.0698 168.349 97.9301C173.853 96.6869 179.929 96.0653 186.576 96.0653C187.822 96.0653 189.276 96.1689 190.938 96.3761C192.599 96.4797 194.261 96.6869 195.923 96.9977C197.584 97.2049 199.194 97.5157 200.752 97.9301C202.31 98.2409 203.556 98.5517 204.491 98.8625L201.219 114.714Z" fill="#2E2D2D"/>
<path d="M211.551 138.49C211.551 132.481 212.486 126.887 214.355 121.707C216.224 116.423 218.873 111.864 222.3 108.031C225.831 104.198 230.089 101.194 235.074 99.018C240.059 96.8423 245.667 95.7545 251.899 95.7545C259.584 95.7545 266.854 97.1531 273.708 99.9504L269.658 115.335C267.477 114.403 264.984 113.626 262.18 113.004C259.48 112.382 256.572 112.072 253.456 112.072C246.083 112.072 240.474 114.403 236.632 119.065C232.789 123.623 230.868 130.098 230.868 138.49C230.868 146.571 232.685 152.994 236.32 157.76C239.955 162.422 246.083 164.753 254.703 164.753C257.922 164.753 261.09 164.442 264.205 163.82C267.321 163.199 270.021 162.422 272.306 161.489L274.954 177.03C272.877 178.066 269.71 178.998 265.452 179.827C261.297 180.656 256.987 181.07 252.522 181.07C245.563 181.07 239.488 180.034 234.295 177.962C229.206 175.786 224.948 172.834 221.521 169.104C218.198 165.271 215.705 160.764 214.043 155.584C212.382 150.301 211.551 144.602 211.551 138.49Z" fill="#2E2D2D"/>
<path d="M287.99 179.05V61.5661L306.84 58.4581V98.7072C308.917 97.9819 311.306 97.3603 314.006 96.8423C316.81 96.3243 319.562 96.0653 322.262 96.0653C328.805 96.0653 334.206 96.9977 338.464 98.8625C342.826 100.624 346.305 103.162 348.901 106.477C351.498 109.689 353.315 113.574 354.354 118.132C355.496 122.691 356.067 127.767 356.067 133.362V179.05H337.218V136.314C337.218 131.963 336.906 128.285 336.283 125.281C335.764 122.173 334.829 119.686 333.479 117.822C332.232 115.853 330.519 114.455 328.338 113.626C326.157 112.693 323.457 112.227 320.237 112.227C317.745 112.227 315.2 112.486 312.604 113.004C310.007 113.522 308.086 113.988 306.84 114.403V179.05H287.99Z" fill="#2E2D2D"/>
<path d="M396.108 179.05H377.259V97.7747H396.108V179.05ZM398.133 73.9983C398.133 77.5207 396.991 80.3179 394.706 82.39C392.421 84.462 389.721 85.498 386.605 85.498C383.386 85.498 380.634 84.462 378.349 82.39C376.064 80.3179 374.922 77.5207 374.922 73.9983C374.922 70.3722 376.064 67.5232 378.349 65.4512C380.634 63.3792 383.386 62.3431 386.605 62.3431C408.929 56.0235 406.645 53.9514 408.929 56.0235C408.929 56.0235 402.439 62.4985 398.133 73.9983Z" fill="#2E2D2D"/>
<path d="M439.473 179.05C434.28 168.379 428.932 156.154 423.427 142.375C418.027 128.492 413.094 113.626 408.628 97.7747H428.724C429.866 102.333 431.165 107.254 432.619 112.538C434.176 117.718 435.786 122.95 437.448 128.233C439.213 133.414 440.979 138.49 442.744 143.463C444.614 148.332 446.327 152.735 447.885 156.672C449.443 152.735 451.105 148.332 452.87 143.463C454.636 138.49 456.349 133.414 458.011 128.233C459.777 122.95 461.438 117.718 462.996 112.538C464.554 107.254 465.904 102.333 467.047 97.7747H486.519C482.054 113.626 477.069 128.492 471.564 142.375C466.164 156.154 460.867 168.379 455.674 179.05H439.473Z" fill="#2E2D2D"/>
<path d="M565.87 176.563C562.235 177.496 557.51 178.428 551.694 179.361C545.878 180.397 539.491 180.915 532.532 180.915C525.99 180.915 520.485 179.982 516.019 178.117C511.658 176.253 508.126 173.663 505.426 170.347C502.83 167.032 500.96 163.095 499.818 158.537C498.676 153.875 498.104 148.798 498.104 143.307V97.7747H516.954V140.355C516.954 149.057 518.2 155.273 520.693 159.003C523.289 162.733 527.755 164.597 534.09 164.597C536.375 164.597 538.764 164.494 541.256 164.287C543.853 164.079 545.774 163.82 547.02 163.51V97.7747H565.87V176.563Z" fill="#2E2D2D"/>
<path d="M634.727 136.314C634.727 127.819 633.637 121.707 631.456 117.977C629.379 114.144 625.432 112.227 619.616 112.227C617.539 112.227 615.254 112.382 612.762 112.693C610.269 113.004 608.4 113.263 607.154 113.47V179.05H588.304V100.417C591.939 99.3806 596.664 98.3963 602.48 97.4639C608.4 96.5315 614.631 96.0653 621.174 96.0653C626.782 96.0653 631.352 96.7905 634.883 98.2409C638.518 99.6914 641.53 101.608 643.918 103.991C645.061 103.162 646.515 102.281 648.28 101.349C650.046 100.417 652.019 99.5878 654.2 98.8625C656.381 98.0337 658.666 97.3603 661.054 96.8423C663.547 96.3243 666.039 96.0653 668.532 96.0653C674.867 96.0653 680.06 96.9977 684.11 98.8625C688.264 100.624 691.484 103.162 693.769 106.477C696.157 109.689 697.767 113.626 698.598 118.288C699.533 122.846 700 127.871 700 133.362V179.05H681.15V136.314C681.15 127.819 680.112 121.707 678.035 117.977C675.958 114.144 671.959 112.227 666.039 112.227C663.028 112.227 660.172 112.745 657.471 113.781C654.771 114.714 652.746 115.646 651.396 116.578C652.227 119.168 652.798 121.914 653.109 124.815C653.421 127.715 653.577 130.824 653.577 134.139V179.05H634.727V136.314Z" fill="#2E2D2D"/>
</svg>
