<svg width="143" height="192" viewBox="0 0 143 192" fill="none" xmlns="http://www.w3.org/2000/svg">
<path fill-rule="evenodd" clip-rule="evenodd" d="M70.8734 43.4269C71.3798 43.3289 72.2343 43.2639 73.1231 43.6966C73.7911 44.0219 74.3906 44.5767 74.7719 44.9454C75.242 45.4 75.7797 45.9762 76.363 46.6375C77.5342 47.9655 78.9935 49.7562 80.6351 51.875C83.9233 56.1191 88.0191 61.7791 92.1297 67.9052C96.239 74.0291 100.387 80.6539 103.766 86.8235C107.114 92.9353 109.824 98.8051 110.903 103.359C113.063 112.476 110.796 123.517 107.769 132.034C106.237 136.342 104.456 140.161 102.803 142.951C101.983 144.335 101.146 145.549 100.335 146.456C99.9328 146.906 99.4683 147.359 98.9486 147.72C98.4846 148.043 97.6452 148.529 96.5566 148.529C95.1956 148.529 94.1277 147.884 93.4539 147.364C92.7412 146.815 92.0942 146.112 91.5243 145.419C90.5556 144.239 89.5149 142.712 88.4909 141.209C88.3191 140.957 88.1478 140.706 87.9774 140.457C86.7422 138.653 85.4839 136.868 84.1604 135.349C82.8168 133.807 81.5711 132.735 80.4338 132.182C77.4925 130.749 75.3462 130.358 73.0947 130.728C70.6839 131.125 67.8077 132.448 63.5439 135.217C61.7104 136.407 59.524 138.853 57.0971 141.616L57.027 141.696C55.9036 142.975 54.7447 144.294 53.6557 145.395C52.6 146.462 51.3515 147.598 50.0487 148.232C48.4327 149.019 46.8324 148.524 45.8677 148.046C44.8344 147.533 43.8547 146.728 42.9637 145.817C41.1575 143.97 39.2525 141.209 37.5188 137.769C34.0353 130.857 31.0433 120.805 31.0433 108.805C31.0433 102.433 33.4025 95.0974 36.7603 87.888C40.1442 80.6228 44.6661 73.2268 49.2613 66.6567C53.8573 60.0854 58.5738 54.2732 62.3836 50.1765C64.2785 48.1389 66.007 46.463 67.4229 45.3241C68.1171 44.7656 68.8412 44.2502 69.5429 43.8975C69.8915 43.7223 70.3489 43.5284 70.8734 43.4269ZM42.0107 90.2072C38.7759 97.1525 36.8086 103.621 36.8086 108.805C36.8086 119.918 39.5851 129.126 42.6944 135.296C44.257 138.396 45.8544 140.631 47.1385 141.945C47.5267 142.341 47.8474 142.614 48.0918 142.794C48.4495 142.512 48.9175 142.092 49.5037 141.5C50.4725 140.52 51.5374 139.308 52.716 137.966L52.8714 137.789C55.0644 135.292 57.7561 132.226 60.3459 130.545C64.7554 127.682 68.4719 125.795 72.1336 125.192C75.9547 124.563 79.3608 125.382 83.0122 127.16C85.1712 128.211 87.0159 129.948 88.5565 131.717C90.1174 133.508 91.5373 135.536 92.7744 137.343C92.961 137.615 93.1423 137.881 93.3189 138.14C94.359 139.665 95.232 140.944 96.0262 141.911C96.149 142.061 96.2626 142.193 96.3673 142.311C96.7763 141.786 97.2647 141.065 97.8093 140.145C99.2468 137.719 100.885 134.235 102.321 130.197C105.227 122.021 107.08 112.196 105.285 104.621C104.386 100.828 101.986 95.5026 98.6796 89.466C95.4046 83.4874 91.3528 77.0109 87.3036 70.9764C83.2558 64.9441 79.2343 59.3888 76.0328 55.2565C74.4295 53.1871 73.0509 51.4992 71.9893 50.2955C71.7256 49.9965 71.4878 49.7346 71.2762 49.5088C71.2182 49.554 71.1576 49.602 71.0945 49.6528C69.9866 50.544 68.4703 51.9954 66.6568 53.9454C63.0498 57.824 58.4953 63.4277 54.0263 69.8173C49.5566 76.208 45.2195 83.3178 42.0107 90.2072Z" fill="#EAEAEB"/>
<path fill-rule="evenodd" clip-rule="evenodd" d="M70.4686 0.131354C71.3645 -0.0473188 72.8763 -0.165885 74.4489 0.623314C75.6308 1.21647 76.6914 2.2282 77.3661 2.90052C78.1978 3.72937 79.1491 4.78009 80.181 5.98606C82.2531 8.40775 84.835 11.673 87.7393 15.5367C93.5568 23.276 100.803 33.5972 108.076 44.7683C115.346 55.9354 122.685 68.0159 128.664 79.2664C134.587 90.4115 139.381 101.115 141.29 109.419C145.112 126.044 141.101 146.178 135.745 161.708C133.035 169.565 129.884 176.529 126.96 181.617C125.509 184.14 124.028 186.354 122.593 188.008C121.881 188.829 121.06 189.654 120.14 190.313C119.319 190.902 117.834 191.787 115.908 191.787C113.5 191.787 111.611 190.612 110.419 189.664C109.158 188.662 108.013 187.381 107.005 186.116C105.291 183.966 103.45 181.181 101.638 178.441C101.334 177.981 101.031 177.523 100.73 177.069C98.5443 173.779 96.318 170.524 93.9765 167.754C91.5993 164.942 89.3954 162.988 87.3833 161.978C82.1793 159.367 78.382 158.652 74.3987 159.328C70.1334 160.052 65.0446 162.465 57.5011 167.513C54.2571 169.683 50.389 174.143 46.0952 179.182L45.9711 179.327C43.9836 181.66 41.9332 184.066 40.0065 186.073C38.1387 188.019 35.9299 190.09 33.6249 191.247C30.7658 192.682 27.9345 191.779 26.2278 190.907C24.3996 189.972 22.6664 188.504 21.0899 186.842C17.8944 183.474 14.524 178.44 11.4567 172.167C5.29362 159.563 0 141.233 0 119.35C0 107.73 4.17389 94.3541 10.1147 81.2076C16.1016 67.9592 24.1019 54.4725 32.2319 42.4916C40.3633 30.5087 48.7077 19.9099 55.4481 12.4396C58.8007 8.72394 61.8589 5.66787 64.3638 3.591C65.5921 2.57264 66.8731 1.63276 68.1147 0.989568C68.7315 0.670086 69.5407 0.316416 70.4686 0.131354ZM19.4039 85.4367C13.6807 98.1017 10.2001 109.897 10.2001 119.35C10.2001 139.615 15.1125 156.407 20.6134 167.657C23.3781 173.311 26.2042 177.387 28.4762 179.781C29.163 180.505 29.7303 181.002 30.1627 181.33C30.7956 180.816 31.6235 180.051 32.6607 178.97C34.3748 177.184 36.2588 174.974 38.3439 172.527L38.6189 172.204C42.4988 167.65 47.2612 162.06 51.8431 158.994C59.6445 153.774 66.2198 150.333 72.6982 149.233C79.4587 148.086 85.4848 149.579 91.9449 152.821C95.7647 154.738 99.0284 157.906 101.754 161.131C104.516 164.397 107.028 168.094 109.217 171.39C109.547 171.887 109.868 172.371 110.18 172.843C112.02 175.624 113.565 177.957 114.97 179.72C115.187 179.993 115.388 180.235 115.573 180.449C116.297 179.491 117.161 178.177 118.124 176.5C120.668 172.075 123.567 165.723 126.106 158.359C131.248 143.45 134.527 125.535 131.351 111.721C129.76 104.804 125.514 95.0929 119.664 84.0852C113.87 73.1828 106.701 61.3728 99.5374 50.3688C92.3759 39.3687 85.261 29.2384 79.5968 21.703C76.7602 17.9294 74.3211 14.8516 72.443 12.6566C71.9764 12.1113 71.5556 11.6336 71.1812 11.222C71.0786 11.3044 70.9715 11.3918 70.8598 11.4845C68.8996 13.1097 66.2169 15.7564 63.0085 19.3122C56.6269 26.3849 48.5688 36.6035 40.6622 48.2551C32.7543 59.9088 25.081 72.8737 19.4039 85.4367ZM72.8547 10.0576L72.8371 10.0654Z" fill="#EAEAEB"/>
</svg>
